<mxfile host="65bd71144e" modified="2021-02-10T01:59:58.274Z" agent="5.0 (X11; Linux x86_64) AppleWebKit/537.36 (KHTML, like Gecko) Code/1.52.1 Chrome/83.0.4103.122 Electron/9.3.5 Safari/537.36" etag="f-Sr1q0DUoZt_TKDw-zC" version="13.10.0" type="embed">
    <diagram id="TbqbvbvdqebI-6xGTyaE" name="Page-1">
        <mxGraphModel dx="3010" dy="1560" grid="1" gridSize="10" guides="1" tooltips="1" connect="1" arrows="1" fold="1" page="1" pageScale="1" pageWidth="1169" pageHeight="827" math="1" shadow="0">
            <root>
                <mxCell id="0"/>
                <mxCell id="1" parent="0"/>
                <mxCell id="196" value="" style="edgeStyle=none;rounded=0;jumpStyle=none;html=1;shadow=0;labelBackgroundColor=none;startArrow=none;startFill=0;endArrow=classic;endFill=1;jettySize=auto;orthogonalLoop=1;strokeColor=#2F5B7C;strokeWidth=3;fontFamily=Helvetica;fontSize=16;spacing=5;fontColor=#000000;" parent="1" source="199" target="221" edge="1">
                    <mxGeometry relative="1" as="geometry"/>
                </mxCell>
                <mxCell id="198" value="" style="edgeStyle=none;rounded=0;jumpStyle=none;html=1;shadow=0;labelBackgroundColor=none;startArrow=none;startFill=0;endArrow=classic;endFill=1;jettySize=auto;orthogonalLoop=1;strokeColor=#2F5B7C;strokeWidth=3;fontFamily=Helvetica;fontSize=16;spacing=5;fontColor=#000000;" parent="1" source="199" target="203" edge="1">
                    <mxGeometry relative="1" as="geometry"/>
                </mxCell>
                <mxCell id="199" value="Thermometry" style="rounded=1;whiteSpace=wrap;html=1;shadow=0;labelBackgroundColor=none;strokeColor=none;strokeWidth=3;fillColor=#2F5B7C;fontFamily=Helvetica;fontSize=16;align=center;fontStyle=1;spacing=5;arcSize=7;perimeterSpacing=2;fontColor=#FFFFFF;" parent="1" vertex="1">
                    <mxGeometry x="1091" y="810" width="150" height="70" as="geometry"/>
                </mxCell>
                <mxCell id="200" value="" style="edgeStyle=none;rounded=1;jumpStyle=none;html=1;shadow=0;labelBackgroundColor=none;startArrow=none;startFill=0;jettySize=auto;orthogonalLoop=1;strokeColor=#E85642;strokeWidth=3;fontFamily=Helvetica;fontSize=14;spacing=5;fontStyle=1;fillColor=#b0e3e6;entryX=0.5;entryY=1;entryDx=0;entryDy=0;fontColor=#000000;" parent="1" source="203" target="292" edge="1">
                    <mxGeometry relative="1" as="geometry">
                        <mxPoint x="770" y="740" as="targetPoint"/>
                    </mxGeometry>
                </mxCell>
                <mxCell id="201" value="" style="edgeStyle=none;rounded=1;jumpStyle=none;html=1;shadow=0;labelBackgroundColor=none;startArrow=none;startFill=0;jettySize=auto;orthogonalLoop=1;strokeColor=#E85642;strokeWidth=3;fontFamily=Helvetica;fontSize=14;spacing=5;fontStyle=1;fillColor=#b0e3e6;entryX=1;entryY=0.5;entryDx=0;entryDy=0;fontColor=#000000;" parent="1" source="203" target="299" edge="1">
                    <mxGeometry relative="1" as="geometry">
                        <mxPoint x="762" y="845" as="targetPoint"/>
                    </mxGeometry>
                </mxCell>
                <mxCell id="202" value="" style="edgeStyle=none;rounded=1;jumpStyle=none;html=1;shadow=0;labelBackgroundColor=none;startArrow=none;startFill=0;jettySize=auto;orthogonalLoop=1;strokeColor=#E85642;strokeWidth=3;fontFamily=Helvetica;fontSize=14;spacing=5;fontStyle=1;fillColor=#b0e3e6;fontColor=#000000;" parent="1" source="203" target="308" edge="1">
                    <mxGeometry relative="1" as="geometry">
                        <mxPoint x="776.3361344537816" y="932" as="targetPoint"/>
                    </mxGeometry>
                </mxCell>
                <mxCell id="203" value="Types of thermometers" style="rounded=1;whiteSpace=wrap;html=1;shadow=0;labelBackgroundColor=none;strokeColor=none;strokeWidth=3;fillColor=#e85642;fontFamily=Helvetica;fontSize=14;align=center;spacing=5;fontStyle=1;arcSize=7;perimeterSpacing=2;fontColor=#000000;" parent="1" vertex="1">
                    <mxGeometry x="811" y="815" width="150" height="60" as="geometry"/>
                </mxCell>
                <mxCell id="221" value="Definitions" style="rounded=1;whiteSpace=wrap;html=1;shadow=0;labelBackgroundColor=none;strokeColor=none;strokeWidth=3;fillColor=#12aab5;fontFamily=Helvetica;fontSize=14;align=center;spacing=5;fontStyle=1;arcSize=7;perimeterSpacing=2;fontColor=#000000;" parent="1" vertex="1">
                    <mxGeometry x="1391" y="814.9999999999999" width="150" height="60" as="geometry"/>
                </mxCell>
                <mxCell id="223" value="" style="edgeStyle=none;rounded=1;jumpStyle=none;html=1;shadow=0;labelBackgroundColor=none;startArrow=none;startFill=0;jettySize=auto;orthogonalLoop=1;strokeColor=#12AAB5;strokeWidth=3;fontFamily=Helvetica;fontSize=14;spacing=5;fontStyle=1;fillColor=#b0e3e6;exitX=0.5;exitY=1;exitDx=0;exitDy=0;entryX=0.5;entryY=0;entryDx=0;entryDy=0;fontColor=#000000;" parent="1" source="221" target="283" edge="1">
                    <mxGeometry relative="1" as="geometry">
                        <mxPoint x="1527.5827338129498" y="952" as="targetPoint"/>
                    </mxGeometry>
                </mxCell>
                <mxCell id="225" value="" style="edgeStyle=none;rounded=1;jumpStyle=none;html=1;shadow=0;labelBackgroundColor=none;startArrow=none;startFill=0;jettySize=auto;orthogonalLoop=1;strokeColor=#12AAB5;strokeWidth=3;fontFamily=Helvetica;fontSize=14;spacing=5;fontStyle=1;fillColor=#b0e3e6;entryX=0;entryY=0.5;entryDx=0;entryDy=0;exitX=1;exitY=0.25;exitDx=0;exitDy=0;fontColor=#000000;" parent="1" source="221" target="270" edge="1">
                    <mxGeometry relative="1" as="geometry">
                        <mxPoint x="1599" y="876.0333333333333" as="targetPoint"/>
                    </mxGeometry>
                </mxCell>
                <mxCell id="227" value="" style="edgeStyle=none;rounded=1;jumpStyle=none;html=1;shadow=0;labelBackgroundColor=none;startArrow=none;startFill=0;jettySize=auto;orthogonalLoop=1;strokeColor=#12AAB5;strokeWidth=3;fontFamily=Helvetica;fontSize=14;spacing=5;fontStyle=1;fillColor=#b0e3e6;entryX=0;entryY=0.5;entryDx=0;entryDy=0;exitX=0.75;exitY=0;exitDx=0;exitDy=0;fontColor=#000000;" parent="1" source="221" target="255" edge="1">
                    <mxGeometry relative="1" as="geometry">
                        <mxPoint x="1599" y="806.3666666666668" as="targetPoint"/>
                    </mxGeometry>
                </mxCell>
                <mxCell id="229" value="" style="edgeStyle=none;rounded=1;jumpStyle=none;html=1;shadow=0;labelBackgroundColor=none;startArrow=none;startFill=0;jettySize=auto;orthogonalLoop=1;strokeColor=#12AAB5;strokeWidth=3;fontFamily=Helvetica;fontSize=14;spacing=5;fontStyle=1;fillColor=#b0e3e6;entryX=0.5;entryY=1;entryDx=0;entryDy=0;fontColor=#000000;" parent="1" source="221" target="236" edge="1">
                    <mxGeometry relative="1" as="geometry">
                        <mxPoint x="1550" y="729.012" as="targetPoint"/>
                    </mxGeometry>
                </mxCell>
                <mxCell id="236" value="Heat" style="swimlane;gradientColor=none;strokeColor=#61C6CE;fillColor=#00BFBF;fontColor=#000000;" parent="1" vertex="1">
                    <mxGeometry x="1200" y="310" width="319" height="370" as="geometry"/>
                </mxCell>
                <mxCell id="244" value="&lt;font&gt;A form of energy in a substance&lt;/font&gt;" style="rounded=1;whiteSpace=wrap;html=1;shadow=0;labelBackgroundColor=none;strokeColor=none;strokeWidth=3;fillColor=#61c6ce;fontFamily=Helvetica;fontSize=14;align=center;spacing=5;fontStyle=0;arcSize=7;perimeterSpacing=2;fontColor=#000000;" parent="236" vertex="1">
                    <mxGeometry x="9" y="30" width="138" height="50" as="geometry"/>
                </mxCell>
                <mxCell id="247" value="&lt;font&gt;Quantity of heat , Q = mcÎ¸&lt;/font&gt;" style="rounded=1;whiteSpace=wrap;html=1;shadow=0;labelBackgroundColor=none;strokeColor=none;strokeWidth=3;fillColor=#61c6ce;fontFamily=Helvetica;fontSize=14;align=center;spacing=5;fontStyle=0;arcSize=7;perimeterSpacing=2;fontColor=#000000;" parent="236" vertex="1">
                    <mxGeometry x="169" y="30" width="138" height="50" as="geometry"/>
                </mxCell>
                <mxCell id="248" value="&lt;font&gt;S.I. unit: Joules (J)&lt;/font&gt;" style="rounded=1;whiteSpace=wrap;html=1;shadow=0;labelBackgroundColor=none;strokeColor=none;strokeWidth=3;fillColor=#61c6ce;fontFamily=Helvetica;fontSize=14;align=center;spacing=5;fontStyle=0;arcSize=7;perimeterSpacing=2;fontColor=#000000;" parent="236" vertex="1">
                    <mxGeometry x="9" y="90" width="138" height="50" as="geometry"/>
                </mxCell>
                <mxCell id="249" value="&lt;font&gt;Transmission of heat&lt;/font&gt;" style="rounded=1;whiteSpace=wrap;html=1;shadow=0;labelBackgroundColor=none;strokeColor=none;strokeWidth=3;fillColor=#61c6ce;fontFamily=Helvetica;fontSize=14;align=center;spacing=5;fontStyle=0;arcSize=7;perimeterSpacing=2;fontColor=#000000;" parent="236" vertex="1">
                    <mxGeometry x="9" y="150" width="138" height="50" as="geometry"/>
                </mxCell>
                <mxCell id="250" value="&lt;div style=&quot;text-align: left&quot;&gt;&lt;span style=&quot;&quot;&gt;Convection&lt;/span&gt;&lt;br&gt;&lt;span style=&quot;&quot;&gt;Conduction&lt;/span&gt;&lt;br&gt;&lt;span style=&quot;&quot;&gt;Radiation&lt;/span&gt;&lt;br&gt;&lt;/div&gt;" style="rounded=1;whiteSpace=wrap;html=1;shadow=0;labelBackgroundColor=none;strokeColor=none;strokeWidth=3;fillColor=#61c6ce;fontFamily=Helvetica;fontSize=14;align=center;spacing=5;fontStyle=0;arcSize=7;perimeterSpacing=2;fontColor=#000000;" parent="236" vertex="1">
                    <mxGeometry x="184.5" y="90" width="107" height="90" as="geometry"/>
                </mxCell>
                <mxCell id="251" value="" style="edgeStyle=orthogonalEdgeStyle;rounded=0;orthogonalLoop=1;jettySize=auto;html=1;fontColor=#000000;" parent="236" source="249" target="250" edge="1">
                    <mxGeometry relative="1" as="geometry"/>
                </mxCell>
                <mxCell id="252" value="&lt;font&gt;Effects&lt;/font&gt;" style="rounded=1;whiteSpace=wrap;html=1;shadow=0;labelBackgroundColor=none;strokeColor=none;strokeWidth=3;fillColor=#61c6ce;fontFamily=Helvetica;fontSize=14;align=center;spacing=5;fontStyle=0;arcSize=7;perimeterSpacing=2;fontColor=#000000;" parent="236" vertex="1">
                    <mxGeometry x="90.5" y="210" width="138" height="50" as="geometry"/>
                </mxCell>
                <mxCell id="253" value="&lt;div style=&quot;text-align: left&quot;&gt;&lt;span style=&quot;&quot;&gt;Change in temperature&lt;/span&gt;&lt;/div&gt;&lt;font&gt;&lt;div style=&quot;text-align: left&quot;&gt;&lt;span&gt;Change of physical state&lt;/span&gt;&lt;/div&gt;&lt;div style=&quot;text-align: left&quot;&gt;&lt;span&gt;Expansion&lt;/span&gt;&lt;/div&gt;&lt;div style=&quot;text-align: left&quot;&gt;&lt;span&gt;Electrical effects&lt;/span&gt;&lt;/div&gt;&lt;/font&gt;" style="rounded=1;whiteSpace=wrap;html=1;shadow=0;labelBackgroundColor=none;strokeColor=none;strokeWidth=3;fillColor=#61c6ce;fontFamily=Helvetica;fontSize=14;align=center;spacing=5;fontStyle=0;arcSize=7;perimeterSpacing=2;fontColor=#000000;" parent="236" vertex="1">
                    <mxGeometry x="19.5" y="280" width="280" height="80" as="geometry"/>
                </mxCell>
                <mxCell id="254" value="" style="edgeStyle=orthogonalEdgeStyle;rounded=0;orthogonalLoop=1;jettySize=auto;html=1;fontColor=#000000;" parent="236" source="252" target="253" edge="1">
                    <mxGeometry relative="1" as="geometry"/>
                </mxCell>
                <mxCell id="255" value="Temperature" style="swimlane;gradientColor=none;strokeColor=#61C6CE;startSize=23;fillColor=#00BFBF;fontColor=#000000;" parent="1" vertex="1">
                    <mxGeometry x="1630" y="400" width="319" height="150" as="geometry"/>
                </mxCell>
                <mxCell id="256" value="Measure of &quot;hotness&quot;" style="rounded=1;whiteSpace=wrap;html=1;shadow=0;labelBackgroundColor=none;strokeColor=none;strokeWidth=3;fillColor=#61c6ce;fontFamily=Helvetica;fontSize=14;align=center;spacing=5;fontStyle=0;arcSize=7;perimeterSpacing=2;fontColor=#000000;" parent="255" vertex="1">
                    <mxGeometry x="9" y="30" width="138" height="50" as="geometry"/>
                </mxCell>
                <mxCell id="257" value="One of the basic physical quantities" style="rounded=1;whiteSpace=wrap;html=1;shadow=0;labelBackgroundColor=none;strokeColor=none;strokeWidth=3;fillColor=#61c6ce;fontFamily=Helvetica;fontSize=14;align=center;spacing=5;fontStyle=0;arcSize=7;perimeterSpacing=2;fontColor=#000000;" parent="255" vertex="1">
                    <mxGeometry x="169" y="30" width="138" height="50" as="geometry"/>
                </mxCell>
                <mxCell id="258" value="S.I. unit: Kelvin (K); Other units: Celcius(Â°C), Ferenheit (Â°F)" style="rounded=1;whiteSpace=wrap;html=1;shadow=0;labelBackgroundColor=none;strokeColor=none;strokeWidth=3;fillColor=#61c6ce;fontFamily=Helvetica;fontSize=14;align=center;spacing=5;fontStyle=0;arcSize=7;perimeterSpacing=2;fontColor=#000000;" parent="255" vertex="1">
                    <mxGeometry x="9" y="90" width="301" height="50" as="geometry"/>
                </mxCell>
                <mxCell id="265" value="Scales" style="swimlane;strokeColor=#61C6CE;startSize=23;fillColor=#00BFBF;fontColor=#000000;" parent="1" vertex="1">
                    <mxGeometry x="1690" y="570" width="319" height="90" as="geometry"/>
                </mxCell>
                <mxCell id="266" value="Temperature scale, Celcius" style="rounded=1;whiteSpace=wrap;html=1;shadow=0;labelBackgroundColor=none;strokeColor=none;strokeWidth=3;fillColor=#61c6ce;fontFamily=Helvetica;fontSize=14;align=center;spacing=5;fontStyle=0;arcSize=7;perimeterSpacing=2;fontColor=#000000;" parent="265" vertex="1">
                    <mxGeometry x="9" y="30" width="138" height="50" as="geometry"/>
                </mxCell>
                <mxCell id="267" value="Thermodynamic scale: Kelvin" style="rounded=1;whiteSpace=wrap;html=1;shadow=0;labelBackgroundColor=none;strokeColor=none;strokeWidth=3;fillColor=#61c6ce;fontFamily=Helvetica;fontSize=14;align=center;spacing=5;fontStyle=0;arcSize=7;perimeterSpacing=2;fontColor=#000000;" parent="265" vertex="1">
                    <mxGeometry x="169" y="30" width="138" height="50" as="geometry"/>
                </mxCell>
                <mxCell id="269" value="" style="edgeStyle=none;rounded=1;jumpStyle=none;html=1;shadow=0;labelBackgroundColor=none;startArrow=none;startFill=0;jettySize=auto;orthogonalLoop=1;strokeColor=#12AAB5;strokeWidth=3;fontFamily=Helvetica;fontSize=14;spacing=5;fontStyle=1;fillColor=#b0e3e6;entryX=0;entryY=0.5;entryDx=0;entryDy=0;exitX=1;exitY=0;exitDx=0;exitDy=0;fontColor=#000000;" parent="1" source="221" target="265" edge="1">
                    <mxGeometry relative="1" as="geometry">
                        <mxPoint x="1540.9952173913043" y="810" as="sourcePoint"/>
                        <mxPoint x="1620" y="760" as="targetPoint"/>
                    </mxGeometry>
                </mxCell>
                <mxCell id="270" value="Triple point of water" style="swimlane;gradientColor=none;strokeColor=#61C6CE;startSize=23;fillColor=#00BFBF;fontColor=#000000;" parent="1" vertex="1">
                    <mxGeometry x="1710" y="680" width="390" height="140" as="geometry"/>
                </mxCell>
                <mxCell id="271" value="The temperature at which the three states of water coexist in thermal equilibrium, i.e. 273.16K" style="rounded=1;whiteSpace=wrap;html=1;shadow=0;labelBackgroundColor=none;strokeColor=none;strokeWidth=3;fillColor=#61c6ce;fontFamily=Helvetica;fontSize=14;align=center;spacing=5;fontStyle=0;arcSize=7;perimeterSpacing=2;fontColor=#000000;" parent="270" vertex="1">
                    <mxGeometry x="9" y="30" width="181" height="100" as="geometry"/>
                </mxCell>
                <mxCell id="272" value="The point of water in the pressure-temperature graph where three phases of water are in thermal equilibrium" style="rounded=1;whiteSpace=wrap;html=1;shadow=0;labelBackgroundColor=none;strokeColor=none;strokeWidth=3;fillColor=#61c6ce;fontFamily=Helvetica;fontSize=14;align=center;spacing=5;fontStyle=0;arcSize=7;perimeterSpacing=2;fontColor=#000000;" parent="270" vertex="1">
                    <mxGeometry x="200" y="30" width="180" height="100" as="geometry"/>
                </mxCell>
                <mxCell id="273" value="Absolute zero" style="swimlane;gradientColor=none;strokeColor=#61C6CE;startSize=23;fillColor=#00BFBF;fontColor=#000000;" parent="1" vertex="1">
                    <mxGeometry x="1710" y="840" width="359" height="130" as="geometry"/>
                </mxCell>
                <mxCell id="274" value="The lowest temperature that can be reached in theory, i.e. 0K. At this temperature, the internal energy of a substance is the lowest, pressure and volume of gas is approximately zero." style="rounded=1;whiteSpace=wrap;html=1;shadow=0;labelBackgroundColor=none;strokeColor=none;strokeWidth=3;fillColor=#61c6ce;fontFamily=Helvetica;fontSize=14;align=center;spacing=5;fontStyle=0;arcSize=7;perimeterSpacing=2;fontColor=#000000;" parent="273" vertex="1">
                    <mxGeometry x="9" y="30" width="341" height="90" as="geometry"/>
                </mxCell>
                <mxCell id="279" value="Thermal equilibrium" style="swimlane;gradientColor=none;strokeColor=#61C6CE;startSize=23;fillColor=#00BFBF;fontColor=#000000;" parent="1" vertex="1">
                    <mxGeometry x="1690" y="994" width="330" height="86" as="geometry"/>
                </mxCell>
                <mxCell id="280" value="Two bodies are in thermal contact and there is no net flow of heat between them" style="rounded=1;whiteSpace=wrap;html=1;shadow=0;labelBackgroundColor=none;strokeColor=none;strokeWidth=3;fillColor=#61c6ce;fontFamily=Helvetica;fontSize=14;align=center;spacing=5;fontStyle=0;arcSize=7;perimeterSpacing=2;fontColor=#000000;" parent="279" vertex="1">
                    <mxGeometry x="9" y="30" width="311" height="50" as="geometry"/>
                </mxCell>
                <mxCell id="281" value="Zeroth law of thermodynamics" style="swimlane;gradientColor=none;strokeColor=#61C6CE;startSize=23;fillColor=#00BFBF;fontColor=#000000;" parent="1" vertex="1">
                    <mxGeometry x="1630" y="1096" width="319" height="110" as="geometry"/>
                </mxCell>
                <mxCell id="282" value="When two bodies A and B are each in thermal equilibrium with a third body C, A and B are also in thermal equilibrium with each other." style="rounded=1;whiteSpace=wrap;html=1;shadow=0;labelBackgroundColor=none;strokeColor=none;strokeWidth=3;fillColor=#61c6ce;fontFamily=Helvetica;fontSize=14;align=center;spacing=5;fontStyle=0;arcSize=7;perimeterSpacing=2;fontColor=#000000;" parent="281" vertex="1">
                    <mxGeometry x="9" y="30" width="301" height="70" as="geometry"/>
                </mxCell>
                <mxCell id="283" value="Thermometric properties" style="swimlane;gradientColor=none;strokeColor=#61C6CE;startSize=23;fillColor=#00BFBF;fontColor=#000000;" parent="1" vertex="1">
                    <mxGeometry x="1270" y="1100" width="319" height="150" as="geometry"/>
                </mxCell>
                <mxCell id="284" value="Volume of liquid" style="rounded=1;whiteSpace=wrap;html=1;shadow=0;labelBackgroundColor=none;strokeColor=none;strokeWidth=3;fillColor=#61c6ce;fontFamily=Helvetica;fontSize=14;align=center;spacing=5;fontStyle=0;arcSize=7;perimeterSpacing=2;fontColor=#000000;" parent="283" vertex="1">
                    <mxGeometry x="9" y="30" width="138" height="50" as="geometry"/>
                </mxCell>
                <mxCell id="285" value="Volume of fixed mass of gas at constant pressure" style="rounded=1;whiteSpace=wrap;html=1;shadow=0;labelBackgroundColor=none;strokeColor=none;strokeWidth=3;fillColor=#61c6ce;fontFamily=Helvetica;fontSize=14;align=center;spacing=5;fontStyle=0;arcSize=7;perimeterSpacing=2;fontColor=#000000;" parent="283" vertex="1">
                    <mxGeometry x="169" y="30" width="138" height="50" as="geometry"/>
                </mxCell>
                <mxCell id="290" value="Pressure of fixed mass of gas at constant volume" style="rounded=1;whiteSpace=wrap;html=1;shadow=0;labelBackgroundColor=none;strokeColor=none;strokeWidth=3;fillColor=#61c6ce;fontFamily=Helvetica;fontSize=14;align=center;spacing=5;fontStyle=0;arcSize=7;perimeterSpacing=2;fontColor=#000000;" parent="283" vertex="1">
                    <mxGeometry x="9" y="90" width="138" height="50" as="geometry"/>
                </mxCell>
                <mxCell id="291" value="Electrical resistance of a piece of metal" style="rounded=1;whiteSpace=wrap;html=1;shadow=0;labelBackgroundColor=none;strokeColor=none;strokeWidth=3;fillColor=#61c6ce;fontFamily=Helvetica;fontSize=14;align=center;spacing=5;fontStyle=0;arcSize=7;perimeterSpacing=2;fontColor=#000000;" parent="283" vertex="1">
                    <mxGeometry x="169" y="90" width="138" height="50" as="geometry"/>
                </mxCell>
                <mxCell id="287" value="" style="edgeStyle=none;rounded=1;jumpStyle=none;html=1;shadow=0;labelBackgroundColor=none;startArrow=none;startFill=0;jettySize=auto;orthogonalLoop=1;strokeColor=#12AAB5;strokeWidth=3;fontFamily=Helvetica;fontSize=14;spacing=5;fontStyle=1;fillColor=#b0e3e6;entryX=0;entryY=0.5;entryDx=0;entryDy=0;exitX=1;exitY=0.5;exitDx=0;exitDy=0;fontColor=#000000;" parent="1" source="221" target="273" edge="1">
                    <mxGeometry relative="1" as="geometry">
                        <mxPoint x="1541" y="845" as="sourcePoint"/>
                        <mxPoint x="1798" y="770" as="targetPoint"/>
                    </mxGeometry>
                </mxCell>
                <mxCell id="288" value="" style="edgeStyle=none;rounded=1;jumpStyle=none;html=1;shadow=0;labelBackgroundColor=none;startArrow=none;startFill=0;jettySize=auto;orthogonalLoop=1;strokeColor=#12AAB5;strokeWidth=3;fontFamily=Helvetica;fontSize=14;spacing=5;fontStyle=1;fillColor=#b0e3e6;entryX=0;entryY=0.5;entryDx=0;entryDy=0;exitX=1;exitY=0.75;exitDx=0;exitDy=0;fontColor=#000000;" parent="1" source="221" target="279" edge="1">
                    <mxGeometry relative="1" as="geometry">
                        <mxPoint x="1543" y="885" as="sourcePoint"/>
                        <mxPoint x="1800" y="945" as="targetPoint"/>
                    </mxGeometry>
                </mxCell>
                <mxCell id="289" value="" style="edgeStyle=none;rounded=1;jumpStyle=none;html=1;shadow=0;labelBackgroundColor=none;startArrow=none;startFill=0;jettySize=auto;orthogonalLoop=1;strokeColor=#12AAB5;strokeWidth=3;fontFamily=Helvetica;fontSize=14;spacing=5;fontStyle=1;fillColor=#b0e3e6;exitX=0.75;exitY=1;exitDx=0;exitDy=0;entryX=0;entryY=0;entryDx=0;entryDy=0;fontColor=#000000;" parent="1" source="221" target="281" edge="1">
                    <mxGeometry relative="1" as="geometry">
                        <mxPoint x="1520" y="891" as="sourcePoint"/>
                        <mxPoint x="1630" y="1160" as="targetPoint"/>
                    </mxGeometry>
                </mxCell>
                <mxCell id="292" value="Liquid thermometer" style="swimlane;gradientColor=none;startSize=23;fillColor=#DE7A73;fontColor=#000000;labelBorderColor=none;strokeColor=#DE7A73;" parent="1" vertex="1">
                    <mxGeometry x="640" y="410" width="450" height="170" as="geometry"/>
                </mxCell>
                <mxCell id="296" value="e.g. mercury thermometer" style="rounded=1;whiteSpace=wrap;html=1;shadow=0;labelBackgroundColor=none;strokeColor=none;strokeWidth=3;fillColor=#f08e81;fontFamily=Helvetica;fontSize=14;align=center;spacing=5;fontStyle=0;arcSize=7;perimeterSpacing=2;fontColor=#000000;" parent="292" vertex="1">
                    <mxGeometry x="10" y="30" width="180" height="40" as="geometry"/>
                </mxCell>
                <mxCell id="297" value="&lt;div style=&quot;line-height: 19px&quot;&gt;Thermometric Property: \(\Delta V \propto \Delta \theta\)&lt;br&gt;&lt;/div&gt;" style="rounded=1;whiteSpace=wrap;html=1;shadow=0;labelBackgroundColor=none;strokeColor=none;strokeWidth=3;fillColor=#f08e81;fontFamily=Helvetica;fontSize=14;align=center;spacing=5;fontStyle=0;arcSize=7;perimeterSpacing=2;fontColor=#000000;" parent="292" vertex="1">
                    <mxGeometry x="200" y="30" width="240" height="40" as="geometry"/>
                </mxCell>
                <mxCell id="298" value="\[\theta = \frac{\ell_\theta - \ell_0}{\ell_{100}-\ell_0} \times 100^{\circ} \mathrm{C} \quad, \quad T=\frac{\ell_T-\ell_{00}}{\ell_{tr}-\ell_{00}} \times 273.16\mathrm{~K} \]" style="rounded=1;whiteSpace=wrap;html=1;shadow=0;labelBackgroundColor=none;strokeColor=none;strokeWidth=3;fillColor=#f08e81;fontFamily=Helvetica;fontSize=14;align=center;spacing=5;fontStyle=0;arcSize=7;perimeterSpacing=2;fontColor=#000000;" parent="292" vertex="1">
                    <mxGeometry x="10" y="80" width="430" height="80" as="geometry"/>
                </mxCell>
                <mxCell id="299" value="Gas thermometer" style="swimlane;gradientColor=none;startSize=23;fillColor=#DE7A73;fontColor=#000000;labelBorderColor=none;strokeColor=#DE7A73;" parent="1" vertex="1">
                    <mxGeometry x="260" y="604" width="490" height="220" as="geometry"/>
                </mxCell>
                <mxCell id="300" value="Constant Volume, H&lt;sub&gt;2&lt;/sub&gt;,N&lt;sub&gt;2&lt;/sub&gt;,H&lt;span style=&quot;font-size: 11.6667px&quot;&gt;e&lt;/span&gt;&lt;br&gt;Constant Pressure, H&lt;sub&gt;2&lt;/sub&gt;" style="rounded=1;whiteSpace=wrap;html=1;shadow=0;labelBackgroundColor=none;strokeColor=none;strokeWidth=3;fillColor=#f08e81;fontFamily=Helvetica;fontSize=14;align=center;spacing=5;fontStyle=0;arcSize=7;perimeterSpacing=2;fontColor=#000000;" parent="299" vertex="1">
                    <mxGeometry x="10" y="30" width="190" height="70" as="geometry"/>
                </mxCell>
                <mxCell id="301" value="&lt;div style=&quot;line-height: 19px&quot;&gt;Thermometric Property: \(\Delta P \Delta V \propto \Delta \theta \quad (\mathrm{where} \ P = \rho gh)\)&lt;br&gt;&lt;/div&gt;" style="rounded=1;whiteSpace=wrap;html=1;shadow=0;labelBackgroundColor=none;strokeColor=none;strokeWidth=3;fillColor=#f08e81;fontFamily=Helvetica;fontSize=14;align=center;spacing=5;fontStyle=0;arcSize=7;perimeterSpacing=2;fontColor=#000000;" parent="299" vertex="1">
                    <mxGeometry x="210" y="30" width="270" height="70" as="geometry"/>
                </mxCell>
                <mxCell id="302" value="\[\theta = \frac{P_\theta V_\theta - P_0V_0}{P_{100} V_{100} - P_0V_0} \times 100^{\circ} \mathrm{C} \quad, \quad T=\frac{P_T V_T}{P_{tr} V_{tr}} \times 273.16\mathrm{~K} \]" style="rounded=1;whiteSpace=wrap;html=1;shadow=0;labelBackgroundColor=none;strokeColor=none;strokeWidth=3;fillColor=#f08e81;fontFamily=Helvetica;fontSize=14;align=center;spacing=5;fontStyle=0;arcSize=7;perimeterSpacing=2;fontColor=#000000;" parent="299" vertex="1">
                    <mxGeometry x="10" y="110" width="470" height="100" as="geometry"/>
                </mxCell>
                <mxCell id="304" value="Resistance thermometer" style="swimlane;gradientColor=none;startSize=23;fillColor=#DE7A73;fontColor=#000000;labelBorderColor=none;strokeColor=#DE7A73;" parent="1" vertex="1">
                    <mxGeometry x="260" y="840" width="490" height="230" as="geometry"/>
                </mxCell>
                <mxCell id="305" value="Platinum Resistance Thermometer" style="rounded=1;whiteSpace=wrap;html=1;shadow=0;labelBackgroundColor=none;strokeColor=none;strokeWidth=3;fillColor=#f08e81;fontFamily=Helvetica;fontSize=14;align=center;spacing=5;fontStyle=0;arcSize=7;perimeterSpacing=2;fontColor=#000000;" parent="304" vertex="1">
                    <mxGeometry x="10" y="30" width="470" height="30" as="geometry"/>
                </mxCell>
                <mxCell id="306" value="&lt;div style=&quot;line-height: 19px&quot;&gt;Thermometric Property:&amp;nbsp;\(\Delta R \propto \Delta \theta \quad (\mathrm{where} \ (\mathrm{i}) R=\frac{P}{Q}\times S \ (\mathrm{ii})\ R_t=R_0(1+at+bt^2))\)&lt;br&gt;&lt;/div&gt;" style="rounded=1;whiteSpace=wrap;html=1;shadow=0;labelBackgroundColor=none;strokeColor=none;strokeWidth=3;fillColor=#f08e81;fontFamily=Helvetica;fontSize=14;align=center;spacing=5;fontStyle=0;arcSize=7;perimeterSpacing=2;fontColor=#000000;" parent="304" vertex="1">
                    <mxGeometry x="10" y="70" width="470" height="70" as="geometry"/>
                </mxCell>
                <mxCell id="307" value="\[\theta = \frac{R_\theta - R_0}{R_{100}-R_0} \times 100^{\circ} \mathrm{C} \quad, \quad T=\frac{R_T}{R_{tr}} \times 273.16\mathrm{~K} \]" style="rounded=1;whiteSpace=wrap;html=1;shadow=0;labelBackgroundColor=none;strokeColor=none;strokeWidth=3;fillColor=#f08e81;fontFamily=Helvetica;fontSize=14;align=center;spacing=5;fontStyle=0;arcSize=7;perimeterSpacing=2;fontColor=#000000;" parent="304" vertex="1">
                    <mxGeometry x="10" y="150" width="470" height="70" as="geometry"/>
                </mxCell>
                <mxCell id="308" value="Thermometric thermometer" style="swimlane;gradientColor=none;startSize=23;fillColor=#DE7A73;fontColor=#000000;labelBorderColor=none;strokeColor=#DE7A73;" parent="1" vertex="1">
                    <mxGeometry x="650" y="1090" width="450" height="170" as="geometry"/>
                </mxCell>
                <mxCell id="309" value="Thermocouple&lt;br&gt;Simple Thermojunction" style="rounded=1;whiteSpace=wrap;html=1;shadow=0;labelBackgroundColor=none;strokeColor=none;strokeWidth=3;fillColor=#f08e81;fontFamily=Helvetica;fontSize=14;align=center;spacing=5;fontStyle=0;arcSize=7;perimeterSpacing=2;fontColor=#000000;" parent="308" vertex="1">
                    <mxGeometry x="10" y="30" width="180" height="40" as="geometry"/>
                </mxCell>
                <mxCell id="310" value="&lt;div style=&quot;line-height: 19px&quot;&gt;Thermometric Property: \(\Delta \varepsilon \propto \Delta \theta\)&lt;br&gt;&lt;/div&gt;" style="rounded=1;whiteSpace=wrap;html=1;shadow=0;labelBackgroundColor=none;strokeColor=none;strokeWidth=3;fillColor=#f08e81;fontFamily=Helvetica;fontSize=14;align=center;spacing=5;fontStyle=0;arcSize=7;perimeterSpacing=2;fontColor=#000000;" parent="308" vertex="1">
                    <mxGeometry x="200" y="30" width="240" height="40" as="geometry"/>
                </mxCell>
                <mxCell id="311" value="\[\theta = \frac{\varepsilon_\theta - \varepsilon_0}{\varepsilon_{100}-\varepsilon_0} \times 100^{\circ} \mathrm{C} \quad, \quad T=\frac{\varepsilon_T-\varepsilon_{00}}{\varepsilon_{tr}-\varepsilon_{00}} \times 273.16\mathrm{~K} \]" style="rounded=1;whiteSpace=wrap;html=1;shadow=0;labelBackgroundColor=none;strokeColor=none;strokeWidth=3;fillColor=#f08e81;fontFamily=Helvetica;fontSize=14;align=center;spacing=5;fontStyle=0;arcSize=7;perimeterSpacing=2;fontColor=#000000;" parent="308" vertex="1">
                    <mxGeometry x="10" y="80" width="430" height="80" as="geometry"/>
                </mxCell>
                <mxCell id="312" value="" style="edgeStyle=none;rounded=1;jumpStyle=none;html=1;shadow=0;labelBackgroundColor=none;startArrow=none;startFill=0;jettySize=auto;orthogonalLoop=1;strokeColor=#E85642;strokeWidth=3;fontFamily=Helvetica;fontSize=14;spacing=5;fontStyle=1;fillColor=#b0e3e6;entryX=1;entryY=0.5;entryDx=0;entryDy=0;fontColor=#000000;" parent="1" source="203" target="304" edge="1">
                    <mxGeometry relative="1" as="geometry">
                        <mxPoint x="855.4503816793895" y="823" as="sourcePoint"/>
                        <mxPoint x="730" y="724" as="targetPoint"/>
                    </mxGeometry>
                </mxCell>
            </root>
        </mxGraphModel>
    </diagram>
</mxfile>